<?xml version="1.0" standalone="no"?>
<!DOCTYPE svg PUBLIC "-//W3C//DTD SVG 20010904//EN"
 "http://www.w3.org/TR/2001/REC-SVG-20010904/DTD/svg10.dtd">
<svg version="1.0" xmlns="http://www.w3.org/2000/svg"
 width="700.000000pt" height="700.000000pt" viewBox="0 0 700.000000 700.000000"
 preserveAspectRatio="xMidYMid meet">
<metadata>
Created by potrace 1.11, written by Peter Selinger 2001-2013
</metadata>
<g transform="translate(0.000000,700.000000) scale(0.100000,-0.100000)"
fill="#000000" stroke="none">
<path d="M401 5675 c-195 -47 -343 -193 -387 -383 -21 -88 -20 -3337 1 -3435
38 -181 187 -334 371 -382 52 -14 282 -15 2014 -16 1447 0 1970 3 2010 12 189
40 351 203 390 393 8 40 12 168 12 398 l-1 338 32 -16 c18 -9 55 -31 83 -48
27 -17 59 -36 70 -42 10 -7 385 -232 832 -500 447 -269 834 -499 860 -511 111
-54 243 -5 291 106 l21 50 -2 1948 c-3 1833 -4 1950 -20 1980 -44 80 -132 127
-222 117 -38 -4 -83 -26 -210 -101 -246 -146 -507 -302 -546 -328 -29 -18
-762 -458 -818 -490 -9 -5 -94 -56 -189 -112 -94 -57 -174 -103 -176 -103 -3
0 -6 152 -6 338 0 185 -2 348 -4 362 -30 199 -177 365 -374 419 -70 19 -113
19 -2025 19 -1564 0 -1964 -2 -2007 -13z m3941 -439 c10 -7 21 -24 26 -37 4
-13 8 -752 8 -1641 l-1 -1618 -23 -22 -22 -22 -1907 -1 c-1500 -1 -1915 1
-1940 11 -22 9 -35 22 -39 40 -4 16 -7 755 -7 1643 l0 1614 27 24 27 23 1917
0 c1557 -1 1920 -3 1934 -14z m2222 -1658 c0 -901 -4 -1503 -10 -1503 -5 0
-384 225 -841 500 -458 275 -848 508 -867 519 l-34 19 1 460 2 461 55 32 c30
18 422 254 870 523 448 270 817 490 820 491 3 0 5 -676 4 -1502z"/>
</g>
</svg>
